<mxfile host="app.diagrams.net" agent="Mozilla/5.0 (Windows NT 10.0; Win64; x64) AppleWebKit/537.36 (KHTML, like Gecko) Chrome/131.0.0.0 Safari/537.36" version="26.0.4">
  <diagram name="Page-1" id="1-os-eytf_MPm3t0fFsg">
    <mxGraphModel dx="794" dy="446" grid="1" gridSize="10" guides="1" tooltips="1" connect="1" arrows="1" fold="1" page="1" pageScale="1" pageWidth="850" pageHeight="1100" math="0" shadow="0">
      <root>
        <mxCell id="0" />
        <mxCell id="1" parent="0" />
        <mxCell id="q0kX11MFpMA9dymLCP_G-476" value="City" style="shape=table;startSize=25;container=1;collapsible=0;childLayout=tableLayout;fixedRows=1;rowLines=1;fontStyle=1;align=center;resizeLast=1;" vertex="1" parent="1">
          <mxGeometry x="34" y="340" width="132" height="67" as="geometry" />
        </mxCell>
        <mxCell id="q0kX11MFpMA9dymLCP_G-477" style="shape=tableRow;horizontal=0;startSize=0;swimlaneHead=0;swimlaneBody=0;fillColor=none;collapsible=0;dropTarget=0;points=[[0,0.5],[1,0.5]];portConstraint=eastwest;top=0;left=0;right=0;bottom=0;" vertex="1" parent="q0kX11MFpMA9dymLCP_G-476">
          <mxGeometry y="25" width="132" height="21" as="geometry" />
        </mxCell>
        <mxCell id="q0kX11MFpMA9dymLCP_G-478" value="INT" style="shape=partialRectangle;connectable=0;fillColor=none;top=0;left=0;bottom=0;right=0;align=left;spacingLeft=2;overflow=hidden;fontSize=11;" vertex="1" parent="q0kX11MFpMA9dymLCP_G-477">
          <mxGeometry width="42" height="21" as="geometry">
            <mxRectangle width="42" height="21" as="alternateBounds" />
          </mxGeometry>
        </mxCell>
        <mxCell id="q0kX11MFpMA9dymLCP_G-479" value="city_id" style="shape=partialRectangle;connectable=0;fillColor=none;top=0;left=0;bottom=0;right=0;align=left;spacingLeft=2;overflow=hidden;fontSize=11;" vertex="1" parent="q0kX11MFpMA9dymLCP_G-477">
          <mxGeometry x="42" width="90" height="21" as="geometry">
            <mxRectangle width="90" height="21" as="alternateBounds" />
          </mxGeometry>
        </mxCell>
        <mxCell id="q0kX11MFpMA9dymLCP_G-480" style="shape=tableRow;horizontal=0;startSize=0;swimlaneHead=0;swimlaneBody=0;fillColor=none;collapsible=0;dropTarget=0;points=[[0,0.5],[1,0.5]];portConstraint=eastwest;top=0;left=0;right=0;bottom=0;" vertex="1" parent="q0kX11MFpMA9dymLCP_G-476">
          <mxGeometry y="46" width="132" height="21" as="geometry" />
        </mxCell>
        <mxCell id="q0kX11MFpMA9dymLCP_G-481" value="VARCHAR" style="shape=partialRectangle;connectable=0;fillColor=none;top=0;left=0;bottom=0;right=0;align=left;spacingLeft=2;overflow=hidden;fontSize=11;" vertex="1" parent="q0kX11MFpMA9dymLCP_G-480">
          <mxGeometry width="42" height="21" as="geometry">
            <mxRectangle width="42" height="21" as="alternateBounds" />
          </mxGeometry>
        </mxCell>
        <mxCell id="q0kX11MFpMA9dymLCP_G-482" value="city_name" style="shape=partialRectangle;connectable=0;fillColor=none;top=0;left=0;bottom=0;right=0;align=left;spacingLeft=2;overflow=hidden;fontSize=11;" vertex="1" parent="q0kX11MFpMA9dymLCP_G-480">
          <mxGeometry x="42" width="90" height="21" as="geometry">
            <mxRectangle width="90" height="21" as="alternateBounds" />
          </mxGeometry>
        </mxCell>
        <mxCell id="q0kX11MFpMA9dymLCP_G-483" value="Theatre" style="shape=table;startSize=25;container=1;collapsible=0;childLayout=tableLayout;fixedRows=1;rowLines=1;fontStyle=1;align=center;resizeLast=1;" vertex="1" parent="1">
          <mxGeometry x="20" y="507" width="160" height="131" as="geometry" />
        </mxCell>
        <mxCell id="q0kX11MFpMA9dymLCP_G-484" style="shape=tableRow;horizontal=0;startSize=0;swimlaneHead=0;swimlaneBody=0;fillColor=none;collapsible=0;dropTarget=0;points=[[0,0.5],[1,0.5]];portConstraint=eastwest;top=0;left=0;right=0;bottom=0;" vertex="1" parent="q0kX11MFpMA9dymLCP_G-483">
          <mxGeometry y="25" width="160" height="21" as="geometry" />
        </mxCell>
        <mxCell id="q0kX11MFpMA9dymLCP_G-485" value="INT" style="shape=partialRectangle;connectable=0;fillColor=none;top=0;left=0;bottom=0;right=0;align=left;spacingLeft=2;overflow=hidden;fontSize=11;" vertex="1" parent="q0kX11MFpMA9dymLCP_G-484">
          <mxGeometry width="42" height="21" as="geometry">
            <mxRectangle width="42" height="21" as="alternateBounds" />
          </mxGeometry>
        </mxCell>
        <mxCell id="q0kX11MFpMA9dymLCP_G-486" value="theatre_id" style="shape=partialRectangle;connectable=0;fillColor=none;top=0;left=0;bottom=0;right=0;align=left;spacingLeft=2;overflow=hidden;fontSize=11;" vertex="1" parent="q0kX11MFpMA9dymLCP_G-484">
          <mxGeometry x="42" width="118" height="21" as="geometry">
            <mxRectangle width="118" height="21" as="alternateBounds" />
          </mxGeometry>
        </mxCell>
        <mxCell id="q0kX11MFpMA9dymLCP_G-487" style="shape=tableRow;horizontal=0;startSize=0;swimlaneHead=0;swimlaneBody=0;fillColor=none;collapsible=0;dropTarget=0;points=[[0,0.5],[1,0.5]];portConstraint=eastwest;top=0;left=0;right=0;bottom=0;" vertex="1" parent="q0kX11MFpMA9dymLCP_G-483">
          <mxGeometry y="46" width="160" height="21" as="geometry" />
        </mxCell>
        <mxCell id="q0kX11MFpMA9dymLCP_G-488" value="VARCHAR" style="shape=partialRectangle;connectable=0;fillColor=none;top=0;left=0;bottom=0;right=0;align=left;spacingLeft=2;overflow=hidden;fontSize=11;" vertex="1" parent="q0kX11MFpMA9dymLCP_G-487">
          <mxGeometry width="42" height="21" as="geometry">
            <mxRectangle width="42" height="21" as="alternateBounds" />
          </mxGeometry>
        </mxCell>
        <mxCell id="q0kX11MFpMA9dymLCP_G-489" value="theatre_name" style="shape=partialRectangle;connectable=0;fillColor=none;top=0;left=0;bottom=0;right=0;align=left;spacingLeft=2;overflow=hidden;fontSize=11;" vertex="1" parent="q0kX11MFpMA9dymLCP_G-487">
          <mxGeometry x="42" width="118" height="21" as="geometry">
            <mxRectangle width="118" height="21" as="alternateBounds" />
          </mxGeometry>
        </mxCell>
        <mxCell id="q0kX11MFpMA9dymLCP_G-490" style="shape=tableRow;horizontal=0;startSize=0;swimlaneHead=0;swimlaneBody=0;fillColor=none;collapsible=0;dropTarget=0;points=[[0,0.5],[1,0.5]];portConstraint=eastwest;top=0;left=0;right=0;bottom=0;" vertex="1" parent="q0kX11MFpMA9dymLCP_G-483">
          <mxGeometry y="67" width="160" height="21" as="geometry" />
        </mxCell>
        <mxCell id="q0kX11MFpMA9dymLCP_G-491" value="INT" style="shape=partialRectangle;connectable=0;fillColor=none;top=0;left=0;bottom=0;right=0;align=left;spacingLeft=2;overflow=hidden;fontSize=11;" vertex="1" parent="q0kX11MFpMA9dymLCP_G-490">
          <mxGeometry width="42" height="21" as="geometry">
            <mxRectangle width="42" height="21" as="alternateBounds" />
          </mxGeometry>
        </mxCell>
        <mxCell id="q0kX11MFpMA9dymLCP_G-492" value="city_id" style="shape=partialRectangle;connectable=0;fillColor=none;top=0;left=0;bottom=0;right=0;align=left;spacingLeft=2;overflow=hidden;fontSize=11;" vertex="1" parent="q0kX11MFpMA9dymLCP_G-490">
          <mxGeometry x="42" width="118" height="21" as="geometry">
            <mxRectangle width="118" height="21" as="alternateBounds" />
          </mxGeometry>
        </mxCell>
        <mxCell id="q0kX11MFpMA9dymLCP_G-493" style="shape=tableRow;horizontal=0;startSize=0;swimlaneHead=0;swimlaneBody=0;fillColor=none;collapsible=0;dropTarget=0;points=[[0,0.5],[1,0.5]];portConstraint=eastwest;top=0;left=0;right=0;bottom=0;" vertex="1" parent="q0kX11MFpMA9dymLCP_G-483">
          <mxGeometry y="88" width="160" height="21" as="geometry" />
        </mxCell>
        <mxCell id="q0kX11MFpMA9dymLCP_G-494" value="VARCHAR" style="shape=partialRectangle;connectable=0;fillColor=none;top=0;left=0;bottom=0;right=0;align=left;spacingLeft=2;overflow=hidden;fontSize=11;" vertex="1" parent="q0kX11MFpMA9dymLCP_G-493">
          <mxGeometry width="42" height="21" as="geometry">
            <mxRectangle width="42" height="21" as="alternateBounds" />
          </mxGeometry>
        </mxCell>
        <mxCell id="q0kX11MFpMA9dymLCP_G-495" value="address" style="shape=partialRectangle;connectable=0;fillColor=none;top=0;left=0;bottom=0;right=0;align=left;spacingLeft=2;overflow=hidden;fontSize=11;" vertex="1" parent="q0kX11MFpMA9dymLCP_G-493">
          <mxGeometry x="42" width="118" height="21" as="geometry">
            <mxRectangle width="118" height="21" as="alternateBounds" />
          </mxGeometry>
        </mxCell>
        <mxCell id="q0kX11MFpMA9dymLCP_G-496" style="shape=tableRow;horizontal=0;startSize=0;swimlaneHead=0;swimlaneBody=0;fillColor=none;collapsible=0;dropTarget=0;points=[[0,0.5],[1,0.5]];portConstraint=eastwest;top=0;left=0;right=0;bottom=0;" vertex="1" parent="q0kX11MFpMA9dymLCP_G-483">
          <mxGeometry y="109" width="160" height="21" as="geometry" />
        </mxCell>
        <mxCell id="q0kX11MFpMA9dymLCP_G-497" value="VARCHAR" style="shape=partialRectangle;connectable=0;fillColor=none;top=0;left=0;bottom=0;right=0;align=left;spacingLeft=2;overflow=hidden;fontSize=11;" vertex="1" parent="q0kX11MFpMA9dymLCP_G-496">
          <mxGeometry width="42" height="21" as="geometry">
            <mxRectangle width="42" height="21" as="alternateBounds" />
          </mxGeometry>
        </mxCell>
        <mxCell id="q0kX11MFpMA9dymLCP_G-498" value="contact_number" style="shape=partialRectangle;connectable=0;fillColor=none;top=0;left=0;bottom=0;right=0;align=left;spacingLeft=2;overflow=hidden;fontSize=11;" vertex="1" parent="q0kX11MFpMA9dymLCP_G-496">
          <mxGeometry x="42" width="118" height="21" as="geometry">
            <mxRectangle width="118" height="21" as="alternateBounds" />
          </mxGeometry>
        </mxCell>
        <mxCell id="q0kX11MFpMA9dymLCP_G-499" value="Genre" style="shape=table;startSize=25;container=1;collapsible=0;childLayout=tableLayout;fixedRows=1;rowLines=1;fontStyle=1;align=center;resizeLast=1;" vertex="1" parent="1">
          <mxGeometry x="274" y="340" width="141" height="67" as="geometry" />
        </mxCell>
        <mxCell id="q0kX11MFpMA9dymLCP_G-500" style="shape=tableRow;horizontal=0;startSize=0;swimlaneHead=0;swimlaneBody=0;fillColor=none;collapsible=0;dropTarget=0;points=[[0,0.5],[1,0.5]];portConstraint=eastwest;top=0;left=0;right=0;bottom=0;" vertex="1" parent="q0kX11MFpMA9dymLCP_G-499">
          <mxGeometry y="25" width="141" height="21" as="geometry" />
        </mxCell>
        <mxCell id="q0kX11MFpMA9dymLCP_G-501" value="INT" style="shape=partialRectangle;connectable=0;fillColor=none;top=0;left=0;bottom=0;right=0;align=left;spacingLeft=2;overflow=hidden;fontSize=11;" vertex="1" parent="q0kX11MFpMA9dymLCP_G-500">
          <mxGeometry width="42" height="21" as="geometry">
            <mxRectangle width="42" height="21" as="alternateBounds" />
          </mxGeometry>
        </mxCell>
        <mxCell id="q0kX11MFpMA9dymLCP_G-502" value="genre_id" style="shape=partialRectangle;connectable=0;fillColor=none;top=0;left=0;bottom=0;right=0;align=left;spacingLeft=2;overflow=hidden;fontSize=11;" vertex="1" parent="q0kX11MFpMA9dymLCP_G-500">
          <mxGeometry x="42" width="99" height="21" as="geometry">
            <mxRectangle width="99" height="21" as="alternateBounds" />
          </mxGeometry>
        </mxCell>
        <mxCell id="q0kX11MFpMA9dymLCP_G-503" style="shape=tableRow;horizontal=0;startSize=0;swimlaneHead=0;swimlaneBody=0;fillColor=none;collapsible=0;dropTarget=0;points=[[0,0.5],[1,0.5]];portConstraint=eastwest;top=0;left=0;right=0;bottom=0;" vertex="1" parent="q0kX11MFpMA9dymLCP_G-499">
          <mxGeometry y="46" width="141" height="21" as="geometry" />
        </mxCell>
        <mxCell id="q0kX11MFpMA9dymLCP_G-504" value="VARCHAR" style="shape=partialRectangle;connectable=0;fillColor=none;top=0;left=0;bottom=0;right=0;align=left;spacingLeft=2;overflow=hidden;fontSize=11;" vertex="1" parent="q0kX11MFpMA9dymLCP_G-503">
          <mxGeometry width="42" height="21" as="geometry">
            <mxRectangle width="42" height="21" as="alternateBounds" />
          </mxGeometry>
        </mxCell>
        <mxCell id="q0kX11MFpMA9dymLCP_G-505" value="genre_name" style="shape=partialRectangle;connectable=0;fillColor=none;top=0;left=0;bottom=0;right=0;align=left;spacingLeft=2;overflow=hidden;fontSize=11;" vertex="1" parent="q0kX11MFpMA9dymLCP_G-503">
          <mxGeometry x="42" width="99" height="21" as="geometry">
            <mxRectangle width="99" height="21" as="alternateBounds" />
          </mxGeometry>
        </mxCell>
        <mxCell id="q0kX11MFpMA9dymLCP_G-506" value="Language" style="shape=table;startSize=25;container=1;collapsible=0;childLayout=tableLayout;fixedRows=1;rowLines=1;fontStyle=1;align=center;resizeLast=1;" vertex="1" parent="1">
          <mxGeometry x="515" y="340" width="156" height="67" as="geometry" />
        </mxCell>
        <mxCell id="q0kX11MFpMA9dymLCP_G-507" style="shape=tableRow;horizontal=0;startSize=0;swimlaneHead=0;swimlaneBody=0;fillColor=none;collapsible=0;dropTarget=0;points=[[0,0.5],[1,0.5]];portConstraint=eastwest;top=0;left=0;right=0;bottom=0;" vertex="1" parent="q0kX11MFpMA9dymLCP_G-506">
          <mxGeometry y="25" width="156" height="21" as="geometry" />
        </mxCell>
        <mxCell id="q0kX11MFpMA9dymLCP_G-508" value="INT" style="shape=partialRectangle;connectable=0;fillColor=none;top=0;left=0;bottom=0;right=0;align=left;spacingLeft=2;overflow=hidden;fontSize=11;" vertex="1" parent="q0kX11MFpMA9dymLCP_G-507">
          <mxGeometry width="42" height="21" as="geometry">
            <mxRectangle width="42" height="21" as="alternateBounds" />
          </mxGeometry>
        </mxCell>
        <mxCell id="q0kX11MFpMA9dymLCP_G-509" value="language_id" style="shape=partialRectangle;connectable=0;fillColor=none;top=0;left=0;bottom=0;right=0;align=left;spacingLeft=2;overflow=hidden;fontSize=11;" vertex="1" parent="q0kX11MFpMA9dymLCP_G-507">
          <mxGeometry x="42" width="114" height="21" as="geometry">
            <mxRectangle width="114" height="21" as="alternateBounds" />
          </mxGeometry>
        </mxCell>
        <mxCell id="q0kX11MFpMA9dymLCP_G-510" style="shape=tableRow;horizontal=0;startSize=0;swimlaneHead=0;swimlaneBody=0;fillColor=none;collapsible=0;dropTarget=0;points=[[0,0.5],[1,0.5]];portConstraint=eastwest;top=0;left=0;right=0;bottom=0;" vertex="1" parent="q0kX11MFpMA9dymLCP_G-506">
          <mxGeometry y="46" width="156" height="21" as="geometry" />
        </mxCell>
        <mxCell id="q0kX11MFpMA9dymLCP_G-511" value="VARCHAR" style="shape=partialRectangle;connectable=0;fillColor=none;top=0;left=0;bottom=0;right=0;align=left;spacingLeft=2;overflow=hidden;fontSize=11;" vertex="1" parent="q0kX11MFpMA9dymLCP_G-510">
          <mxGeometry width="42" height="21" as="geometry">
            <mxRectangle width="42" height="21" as="alternateBounds" />
          </mxGeometry>
        </mxCell>
        <mxCell id="q0kX11MFpMA9dymLCP_G-512" value="language_name" style="shape=partialRectangle;connectable=0;fillColor=none;top=0;left=0;bottom=0;right=0;align=left;spacingLeft=2;overflow=hidden;fontSize=11;" vertex="1" parent="q0kX11MFpMA9dymLCP_G-510">
          <mxGeometry x="42" width="114" height="21" as="geometry">
            <mxRectangle width="114" height="21" as="alternateBounds" />
          </mxGeometry>
        </mxCell>
        <mxCell id="q0kX11MFpMA9dymLCP_G-513" value="Movie" style="shape=table;startSize=25;container=1;collapsible=0;childLayout=tableLayout;fixedRows=1;rowLines=1;fontStyle=1;align=center;resizeLast=1;" vertex="1" parent="1">
          <mxGeometry x="397" y="507" width="144" height="131" as="geometry" />
        </mxCell>
        <mxCell id="q0kX11MFpMA9dymLCP_G-514" style="shape=tableRow;horizontal=0;startSize=0;swimlaneHead=0;swimlaneBody=0;fillColor=none;collapsible=0;dropTarget=0;points=[[0,0.5],[1,0.5]];portConstraint=eastwest;top=0;left=0;right=0;bottom=0;" vertex="1" parent="q0kX11MFpMA9dymLCP_G-513">
          <mxGeometry y="25" width="144" height="21" as="geometry" />
        </mxCell>
        <mxCell id="q0kX11MFpMA9dymLCP_G-515" value="INT" style="shape=partialRectangle;connectable=0;fillColor=none;top=0;left=0;bottom=0;right=0;align=left;spacingLeft=2;overflow=hidden;fontSize=11;" vertex="1" parent="q0kX11MFpMA9dymLCP_G-514">
          <mxGeometry width="42" height="21" as="geometry">
            <mxRectangle width="42" height="21" as="alternateBounds" />
          </mxGeometry>
        </mxCell>
        <mxCell id="q0kX11MFpMA9dymLCP_G-516" value="movie_id" style="shape=partialRectangle;connectable=0;fillColor=none;top=0;left=0;bottom=0;right=0;align=left;spacingLeft=2;overflow=hidden;fontSize=11;" vertex="1" parent="q0kX11MFpMA9dymLCP_G-514">
          <mxGeometry x="42" width="102" height="21" as="geometry">
            <mxRectangle width="102" height="21" as="alternateBounds" />
          </mxGeometry>
        </mxCell>
        <mxCell id="q0kX11MFpMA9dymLCP_G-517" style="shape=tableRow;horizontal=0;startSize=0;swimlaneHead=0;swimlaneBody=0;fillColor=none;collapsible=0;dropTarget=0;points=[[0,0.5],[1,0.5]];portConstraint=eastwest;top=0;left=0;right=0;bottom=0;" vertex="1" parent="q0kX11MFpMA9dymLCP_G-513">
          <mxGeometry y="46" width="144" height="21" as="geometry" />
        </mxCell>
        <mxCell id="q0kX11MFpMA9dymLCP_G-518" value="VARCHAR" style="shape=partialRectangle;connectable=0;fillColor=none;top=0;left=0;bottom=0;right=0;align=left;spacingLeft=2;overflow=hidden;fontSize=11;" vertex="1" parent="q0kX11MFpMA9dymLCP_G-517">
          <mxGeometry width="42" height="21" as="geometry">
            <mxRectangle width="42" height="21" as="alternateBounds" />
          </mxGeometry>
        </mxCell>
        <mxCell id="q0kX11MFpMA9dymLCP_G-519" value="movie_title" style="shape=partialRectangle;connectable=0;fillColor=none;top=0;left=0;bottom=0;right=0;align=left;spacingLeft=2;overflow=hidden;fontSize=11;" vertex="1" parent="q0kX11MFpMA9dymLCP_G-517">
          <mxGeometry x="42" width="102" height="21" as="geometry">
            <mxRectangle width="102" height="21" as="alternateBounds" />
          </mxGeometry>
        </mxCell>
        <mxCell id="q0kX11MFpMA9dymLCP_G-520" style="shape=tableRow;horizontal=0;startSize=0;swimlaneHead=0;swimlaneBody=0;fillColor=none;collapsible=0;dropTarget=0;points=[[0,0.5],[1,0.5]];portConstraint=eastwest;top=0;left=0;right=0;bottom=0;" vertex="1" parent="q0kX11MFpMA9dymLCP_G-513">
          <mxGeometry y="67" width="144" height="21" as="geometry" />
        </mxCell>
        <mxCell id="q0kX11MFpMA9dymLCP_G-521" value="INT" style="shape=partialRectangle;connectable=0;fillColor=none;top=0;left=0;bottom=0;right=0;align=left;spacingLeft=2;overflow=hidden;fontSize=11;" vertex="1" parent="q0kX11MFpMA9dymLCP_G-520">
          <mxGeometry width="42" height="21" as="geometry">
            <mxRectangle width="42" height="21" as="alternateBounds" />
          </mxGeometry>
        </mxCell>
        <mxCell id="q0kX11MFpMA9dymLCP_G-522" value="genre_id" style="shape=partialRectangle;connectable=0;fillColor=none;top=0;left=0;bottom=0;right=0;align=left;spacingLeft=2;overflow=hidden;fontSize=11;" vertex="1" parent="q0kX11MFpMA9dymLCP_G-520">
          <mxGeometry x="42" width="102" height="21" as="geometry">
            <mxRectangle width="102" height="21" as="alternateBounds" />
          </mxGeometry>
        </mxCell>
        <mxCell id="q0kX11MFpMA9dymLCP_G-523" style="shape=tableRow;horizontal=0;startSize=0;swimlaneHead=0;swimlaneBody=0;fillColor=none;collapsible=0;dropTarget=0;points=[[0,0.5],[1,0.5]];portConstraint=eastwest;top=0;left=0;right=0;bottom=0;" vertex="1" parent="q0kX11MFpMA9dymLCP_G-513">
          <mxGeometry y="88" width="144" height="21" as="geometry" />
        </mxCell>
        <mxCell id="q0kX11MFpMA9dymLCP_G-524" value="INT" style="shape=partialRectangle;connectable=0;fillColor=none;top=0;left=0;bottom=0;right=0;align=left;spacingLeft=2;overflow=hidden;fontSize=11;" vertex="1" parent="q0kX11MFpMA9dymLCP_G-523">
          <mxGeometry width="42" height="21" as="geometry">
            <mxRectangle width="42" height="21" as="alternateBounds" />
          </mxGeometry>
        </mxCell>
        <mxCell id="q0kX11MFpMA9dymLCP_G-525" value="language_id" style="shape=partialRectangle;connectable=0;fillColor=none;top=0;left=0;bottom=0;right=0;align=left;spacingLeft=2;overflow=hidden;fontSize=11;" vertex="1" parent="q0kX11MFpMA9dymLCP_G-523">
          <mxGeometry x="42" width="102" height="21" as="geometry">
            <mxRectangle width="102" height="21" as="alternateBounds" />
          </mxGeometry>
        </mxCell>
        <mxCell id="q0kX11MFpMA9dymLCP_G-526" style="shape=tableRow;horizontal=0;startSize=0;swimlaneHead=0;swimlaneBody=0;fillColor=none;collapsible=0;dropTarget=0;points=[[0,0.5],[1,0.5]];portConstraint=eastwest;top=0;left=0;right=0;bottom=0;" vertex="1" parent="q0kX11MFpMA9dymLCP_G-513">
          <mxGeometry y="109" width="144" height="21" as="geometry" />
        </mxCell>
        <mxCell id="q0kX11MFpMA9dymLCP_G-527" value="DATE" style="shape=partialRectangle;connectable=0;fillColor=none;top=0;left=0;bottom=0;right=0;align=left;spacingLeft=2;overflow=hidden;fontSize=11;" vertex="1" parent="q0kX11MFpMA9dymLCP_G-526">
          <mxGeometry width="42" height="21" as="geometry">
            <mxRectangle width="42" height="21" as="alternateBounds" />
          </mxGeometry>
        </mxCell>
        <mxCell id="q0kX11MFpMA9dymLCP_G-528" value="release_date" style="shape=partialRectangle;connectable=0;fillColor=none;top=0;left=0;bottom=0;right=0;align=left;spacingLeft=2;overflow=hidden;fontSize=11;" vertex="1" parent="q0kX11MFpMA9dymLCP_G-526">
          <mxGeometry x="42" width="102" height="21" as="geometry">
            <mxRectangle width="102" height="21" as="alternateBounds" />
          </mxGeometry>
        </mxCell>
        <mxCell id="q0kX11MFpMA9dymLCP_G-529" value="Show" style="shape=table;startSize=25;container=1;collapsible=0;childLayout=tableLayout;fixedRows=1;rowLines=1;fontStyle=1;align=center;resizeLast=1;" vertex="1" parent="1">
          <mxGeometry x="275" y="737" width="135" height="131" as="geometry" />
        </mxCell>
        <mxCell id="q0kX11MFpMA9dymLCP_G-530" style="shape=tableRow;horizontal=0;startSize=0;swimlaneHead=0;swimlaneBody=0;fillColor=none;collapsible=0;dropTarget=0;points=[[0,0.5],[1,0.5]];portConstraint=eastwest;top=0;left=0;right=0;bottom=0;" vertex="1" parent="q0kX11MFpMA9dymLCP_G-529">
          <mxGeometry y="25" width="135" height="21" as="geometry" />
        </mxCell>
        <mxCell id="q0kX11MFpMA9dymLCP_G-531" value="INT" style="shape=partialRectangle;connectable=0;fillColor=none;top=0;left=0;bottom=0;right=0;align=left;spacingLeft=2;overflow=hidden;fontSize=11;" vertex="1" parent="q0kX11MFpMA9dymLCP_G-530">
          <mxGeometry width="48" height="21" as="geometry">
            <mxRectangle width="48" height="21" as="alternateBounds" />
          </mxGeometry>
        </mxCell>
        <mxCell id="q0kX11MFpMA9dymLCP_G-532" value="show_id" style="shape=partialRectangle;connectable=0;fillColor=none;top=0;left=0;bottom=0;right=0;align=left;spacingLeft=2;overflow=hidden;fontSize=11;" vertex="1" parent="q0kX11MFpMA9dymLCP_G-530">
          <mxGeometry x="48" width="87" height="21" as="geometry">
            <mxRectangle width="87" height="21" as="alternateBounds" />
          </mxGeometry>
        </mxCell>
        <mxCell id="q0kX11MFpMA9dymLCP_G-533" style="shape=tableRow;horizontal=0;startSize=0;swimlaneHead=0;swimlaneBody=0;fillColor=none;collapsible=0;dropTarget=0;points=[[0,0.5],[1,0.5]];portConstraint=eastwest;top=0;left=0;right=0;bottom=0;" vertex="1" parent="q0kX11MFpMA9dymLCP_G-529">
          <mxGeometry y="46" width="135" height="21" as="geometry" />
        </mxCell>
        <mxCell id="q0kX11MFpMA9dymLCP_G-534" value="INT" style="shape=partialRectangle;connectable=0;fillColor=none;top=0;left=0;bottom=0;right=0;align=left;spacingLeft=2;overflow=hidden;fontSize=11;" vertex="1" parent="q0kX11MFpMA9dymLCP_G-533">
          <mxGeometry width="48" height="21" as="geometry">
            <mxRectangle width="48" height="21" as="alternateBounds" />
          </mxGeometry>
        </mxCell>
        <mxCell id="q0kX11MFpMA9dymLCP_G-535" value="movie_id" style="shape=partialRectangle;connectable=0;fillColor=none;top=0;left=0;bottom=0;right=0;align=left;spacingLeft=2;overflow=hidden;fontSize=11;" vertex="1" parent="q0kX11MFpMA9dymLCP_G-533">
          <mxGeometry x="48" width="87" height="21" as="geometry">
            <mxRectangle width="87" height="21" as="alternateBounds" />
          </mxGeometry>
        </mxCell>
        <mxCell id="q0kX11MFpMA9dymLCP_G-536" style="shape=tableRow;horizontal=0;startSize=0;swimlaneHead=0;swimlaneBody=0;fillColor=none;collapsible=0;dropTarget=0;points=[[0,0.5],[1,0.5]];portConstraint=eastwest;top=0;left=0;right=0;bottom=0;" vertex="1" parent="q0kX11MFpMA9dymLCP_G-529">
          <mxGeometry y="67" width="135" height="21" as="geometry" />
        </mxCell>
        <mxCell id="q0kX11MFpMA9dymLCP_G-537" value="INT" style="shape=partialRectangle;connectable=0;fillColor=none;top=0;left=0;bottom=0;right=0;align=left;spacingLeft=2;overflow=hidden;fontSize=11;" vertex="1" parent="q0kX11MFpMA9dymLCP_G-536">
          <mxGeometry width="48" height="21" as="geometry">
            <mxRectangle width="48" height="21" as="alternateBounds" />
          </mxGeometry>
        </mxCell>
        <mxCell id="q0kX11MFpMA9dymLCP_G-538" value="theatre_id" style="shape=partialRectangle;connectable=0;fillColor=none;top=0;left=0;bottom=0;right=0;align=left;spacingLeft=2;overflow=hidden;fontSize=11;" vertex="1" parent="q0kX11MFpMA9dymLCP_G-536">
          <mxGeometry x="48" width="87" height="21" as="geometry">
            <mxRectangle width="87" height="21" as="alternateBounds" />
          </mxGeometry>
        </mxCell>
        <mxCell id="q0kX11MFpMA9dymLCP_G-539" style="shape=tableRow;horizontal=0;startSize=0;swimlaneHead=0;swimlaneBody=0;fillColor=none;collapsible=0;dropTarget=0;points=[[0,0.5],[1,0.5]];portConstraint=eastwest;top=0;left=0;right=0;bottom=0;" vertex="1" parent="q0kX11MFpMA9dymLCP_G-529">
          <mxGeometry y="88" width="135" height="21" as="geometry" />
        </mxCell>
        <mxCell id="q0kX11MFpMA9dymLCP_G-540" value="DATETIME" style="shape=partialRectangle;connectable=0;fillColor=none;top=0;left=0;bottom=0;right=0;align=left;spacingLeft=2;overflow=hidden;fontSize=11;" vertex="1" parent="q0kX11MFpMA9dymLCP_G-539">
          <mxGeometry width="48" height="21" as="geometry">
            <mxRectangle width="48" height="21" as="alternateBounds" />
          </mxGeometry>
        </mxCell>
        <mxCell id="q0kX11MFpMA9dymLCP_G-541" value="show_time" style="shape=partialRectangle;connectable=0;fillColor=none;top=0;left=0;bottom=0;right=0;align=left;spacingLeft=2;overflow=hidden;fontSize=11;" vertex="1" parent="q0kX11MFpMA9dymLCP_G-539">
          <mxGeometry x="48" width="87" height="21" as="geometry">
            <mxRectangle width="87" height="21" as="alternateBounds" />
          </mxGeometry>
        </mxCell>
        <mxCell id="q0kX11MFpMA9dymLCP_G-542" style="shape=tableRow;horizontal=0;startSize=0;swimlaneHead=0;swimlaneBody=0;fillColor=none;collapsible=0;dropTarget=0;points=[[0,0.5],[1,0.5]];portConstraint=eastwest;top=0;left=0;right=0;bottom=0;" vertex="1" parent="q0kX11MFpMA9dymLCP_G-529">
          <mxGeometry y="109" width="135" height="21" as="geometry" />
        </mxCell>
        <mxCell id="q0kX11MFpMA9dymLCP_G-543" value="DECIMAL" style="shape=partialRectangle;connectable=0;fillColor=none;top=0;left=0;bottom=0;right=0;align=left;spacingLeft=2;overflow=hidden;fontSize=11;" vertex="1" parent="q0kX11MFpMA9dymLCP_G-542">
          <mxGeometry width="48" height="21" as="geometry">
            <mxRectangle width="48" height="21" as="alternateBounds" />
          </mxGeometry>
        </mxCell>
        <mxCell id="q0kX11MFpMA9dymLCP_G-544" value="price" style="shape=partialRectangle;connectable=0;fillColor=none;top=0;left=0;bottom=0;right=0;align=left;spacingLeft=2;overflow=hidden;fontSize=11;" vertex="1" parent="q0kX11MFpMA9dymLCP_G-542">
          <mxGeometry x="48" width="87" height="21" as="geometry">
            <mxRectangle width="87" height="21" as="alternateBounds" />
          </mxGeometry>
        </mxCell>
        <mxCell id="q0kX11MFpMA9dymLCP_G-545" value="Customer" style="shape=table;startSize=25;container=1;collapsible=0;childLayout=tableLayout;fixedRows=1;rowLines=1;fontStyle=1;align=center;resizeLast=1;" vertex="1" parent="1">
          <mxGeometry x="510" y="737" width="153" height="131" as="geometry" />
        </mxCell>
        <mxCell id="q0kX11MFpMA9dymLCP_G-546" style="shape=tableRow;horizontal=0;startSize=0;swimlaneHead=0;swimlaneBody=0;fillColor=none;collapsible=0;dropTarget=0;points=[[0,0.5],[1,0.5]];portConstraint=eastwest;top=0;left=0;right=0;bottom=0;" vertex="1" parent="q0kX11MFpMA9dymLCP_G-545">
          <mxGeometry y="25" width="153" height="21" as="geometry" />
        </mxCell>
        <mxCell id="q0kX11MFpMA9dymLCP_G-547" value="INT" style="shape=partialRectangle;connectable=0;fillColor=none;top=0;left=0;bottom=0;right=0;align=left;spacingLeft=2;overflow=hidden;fontSize=11;" vertex="1" parent="q0kX11MFpMA9dymLCP_G-546">
          <mxGeometry width="42" height="21" as="geometry">
            <mxRectangle width="42" height="21" as="alternateBounds" />
          </mxGeometry>
        </mxCell>
        <mxCell id="q0kX11MFpMA9dymLCP_G-548" value="customer_id" style="shape=partialRectangle;connectable=0;fillColor=none;top=0;left=0;bottom=0;right=0;align=left;spacingLeft=2;overflow=hidden;fontSize=11;" vertex="1" parent="q0kX11MFpMA9dymLCP_G-546">
          <mxGeometry x="42" width="111" height="21" as="geometry">
            <mxRectangle width="111" height="21" as="alternateBounds" />
          </mxGeometry>
        </mxCell>
        <mxCell id="q0kX11MFpMA9dymLCP_G-549" style="shape=tableRow;horizontal=0;startSize=0;swimlaneHead=0;swimlaneBody=0;fillColor=none;collapsible=0;dropTarget=0;points=[[0,0.5],[1,0.5]];portConstraint=eastwest;top=0;left=0;right=0;bottom=0;" vertex="1" parent="q0kX11MFpMA9dymLCP_G-545">
          <mxGeometry y="46" width="153" height="21" as="geometry" />
        </mxCell>
        <mxCell id="q0kX11MFpMA9dymLCP_G-550" value="VARCHAR" style="shape=partialRectangle;connectable=0;fillColor=none;top=0;left=0;bottom=0;right=0;align=left;spacingLeft=2;overflow=hidden;fontSize=11;" vertex="1" parent="q0kX11MFpMA9dymLCP_G-549">
          <mxGeometry width="42" height="21" as="geometry">
            <mxRectangle width="42" height="21" as="alternateBounds" />
          </mxGeometry>
        </mxCell>
        <mxCell id="q0kX11MFpMA9dymLCP_G-551" value="first_name" style="shape=partialRectangle;connectable=0;fillColor=none;top=0;left=0;bottom=0;right=0;align=left;spacingLeft=2;overflow=hidden;fontSize=11;" vertex="1" parent="q0kX11MFpMA9dymLCP_G-549">
          <mxGeometry x="42" width="111" height="21" as="geometry">
            <mxRectangle width="111" height="21" as="alternateBounds" />
          </mxGeometry>
        </mxCell>
        <mxCell id="q0kX11MFpMA9dymLCP_G-552" style="shape=tableRow;horizontal=0;startSize=0;swimlaneHead=0;swimlaneBody=0;fillColor=none;collapsible=0;dropTarget=0;points=[[0,0.5],[1,0.5]];portConstraint=eastwest;top=0;left=0;right=0;bottom=0;" vertex="1" parent="q0kX11MFpMA9dymLCP_G-545">
          <mxGeometry y="67" width="153" height="21" as="geometry" />
        </mxCell>
        <mxCell id="q0kX11MFpMA9dymLCP_G-553" value="VARCHAR" style="shape=partialRectangle;connectable=0;fillColor=none;top=0;left=0;bottom=0;right=0;align=left;spacingLeft=2;overflow=hidden;fontSize=11;" vertex="1" parent="q0kX11MFpMA9dymLCP_G-552">
          <mxGeometry width="42" height="21" as="geometry">
            <mxRectangle width="42" height="21" as="alternateBounds" />
          </mxGeometry>
        </mxCell>
        <mxCell id="q0kX11MFpMA9dymLCP_G-554" value="last_name" style="shape=partialRectangle;connectable=0;fillColor=none;top=0;left=0;bottom=0;right=0;align=left;spacingLeft=2;overflow=hidden;fontSize=11;" vertex="1" parent="q0kX11MFpMA9dymLCP_G-552">
          <mxGeometry x="42" width="111" height="21" as="geometry">
            <mxRectangle width="111" height="21" as="alternateBounds" />
          </mxGeometry>
        </mxCell>
        <mxCell id="q0kX11MFpMA9dymLCP_G-555" style="shape=tableRow;horizontal=0;startSize=0;swimlaneHead=0;swimlaneBody=0;fillColor=none;collapsible=0;dropTarget=0;points=[[0,0.5],[1,0.5]];portConstraint=eastwest;top=0;left=0;right=0;bottom=0;" vertex="1" parent="q0kX11MFpMA9dymLCP_G-545">
          <mxGeometry y="88" width="153" height="21" as="geometry" />
        </mxCell>
        <mxCell id="q0kX11MFpMA9dymLCP_G-556" value="VARCHAR" style="shape=partialRectangle;connectable=0;fillColor=none;top=0;left=0;bottom=0;right=0;align=left;spacingLeft=2;overflow=hidden;fontSize=11;" vertex="1" parent="q0kX11MFpMA9dymLCP_G-555">
          <mxGeometry width="42" height="21" as="geometry">
            <mxRectangle width="42" height="21" as="alternateBounds" />
          </mxGeometry>
        </mxCell>
        <mxCell id="q0kX11MFpMA9dymLCP_G-557" value="email" style="shape=partialRectangle;connectable=0;fillColor=none;top=0;left=0;bottom=0;right=0;align=left;spacingLeft=2;overflow=hidden;fontSize=11;" vertex="1" parent="q0kX11MFpMA9dymLCP_G-555">
          <mxGeometry x="42" width="111" height="21" as="geometry">
            <mxRectangle width="111" height="21" as="alternateBounds" />
          </mxGeometry>
        </mxCell>
        <mxCell id="q0kX11MFpMA9dymLCP_G-558" style="shape=tableRow;horizontal=0;startSize=0;swimlaneHead=0;swimlaneBody=0;fillColor=none;collapsible=0;dropTarget=0;points=[[0,0.5],[1,0.5]];portConstraint=eastwest;top=0;left=0;right=0;bottom=0;" vertex="1" parent="q0kX11MFpMA9dymLCP_G-545">
          <mxGeometry y="109" width="153" height="21" as="geometry" />
        </mxCell>
        <mxCell id="q0kX11MFpMA9dymLCP_G-559" value="VARCHAR" style="shape=partialRectangle;connectable=0;fillColor=none;top=0;left=0;bottom=0;right=0;align=left;spacingLeft=2;overflow=hidden;fontSize=11;" vertex="1" parent="q0kX11MFpMA9dymLCP_G-558">
          <mxGeometry width="42" height="21" as="geometry">
            <mxRectangle width="42" height="21" as="alternateBounds" />
          </mxGeometry>
        </mxCell>
        <mxCell id="q0kX11MFpMA9dymLCP_G-560" value="phone_number" style="shape=partialRectangle;connectable=0;fillColor=none;top=0;left=0;bottom=0;right=0;align=left;spacingLeft=2;overflow=hidden;fontSize=11;" vertex="1" parent="q0kX11MFpMA9dymLCP_G-558">
          <mxGeometry x="42" width="111" height="21" as="geometry">
            <mxRectangle width="111" height="21" as="alternateBounds" />
          </mxGeometry>
        </mxCell>
        <mxCell id="q0kX11MFpMA9dymLCP_G-561" value="Booking" style="shape=table;startSize=25;container=1;collapsible=0;childLayout=tableLayout;fixedRows=1;rowLines=1;fontStyle=1;align=center;resizeLast=1;" vertex="1" parent="1">
          <mxGeometry x="391" y="968" width="148" height="152" as="geometry" />
        </mxCell>
        <mxCell id="q0kX11MFpMA9dymLCP_G-562" style="shape=tableRow;horizontal=0;startSize=0;swimlaneHead=0;swimlaneBody=0;fillColor=none;collapsible=0;dropTarget=0;points=[[0,0.5],[1,0.5]];portConstraint=eastwest;top=0;left=0;right=0;bottom=0;" vertex="1" parent="q0kX11MFpMA9dymLCP_G-561">
          <mxGeometry y="25" width="148" height="21" as="geometry" />
        </mxCell>
        <mxCell id="q0kX11MFpMA9dymLCP_G-563" value="INT" style="shape=partialRectangle;connectable=0;fillColor=none;top=0;left=0;bottom=0;right=0;align=left;spacingLeft=2;overflow=hidden;fontSize=11;" vertex="1" parent="q0kX11MFpMA9dymLCP_G-562">
          <mxGeometry width="48" height="21" as="geometry">
            <mxRectangle width="48" height="21" as="alternateBounds" />
          </mxGeometry>
        </mxCell>
        <mxCell id="q0kX11MFpMA9dymLCP_G-564" value="booking_id" style="shape=partialRectangle;connectable=0;fillColor=none;top=0;left=0;bottom=0;right=0;align=left;spacingLeft=2;overflow=hidden;fontSize=11;" vertex="1" parent="q0kX11MFpMA9dymLCP_G-562">
          <mxGeometry x="48" width="100" height="21" as="geometry">
            <mxRectangle width="100" height="21" as="alternateBounds" />
          </mxGeometry>
        </mxCell>
        <mxCell id="q0kX11MFpMA9dymLCP_G-565" style="shape=tableRow;horizontal=0;startSize=0;swimlaneHead=0;swimlaneBody=0;fillColor=none;collapsible=0;dropTarget=0;points=[[0,0.5],[1,0.5]];portConstraint=eastwest;top=0;left=0;right=0;bottom=0;" vertex="1" parent="q0kX11MFpMA9dymLCP_G-561">
          <mxGeometry y="46" width="148" height="21" as="geometry" />
        </mxCell>
        <mxCell id="q0kX11MFpMA9dymLCP_G-566" value="INT" style="shape=partialRectangle;connectable=0;fillColor=none;top=0;left=0;bottom=0;right=0;align=left;spacingLeft=2;overflow=hidden;fontSize=11;" vertex="1" parent="q0kX11MFpMA9dymLCP_G-565">
          <mxGeometry width="48" height="21" as="geometry">
            <mxRectangle width="48" height="21" as="alternateBounds" />
          </mxGeometry>
        </mxCell>
        <mxCell id="q0kX11MFpMA9dymLCP_G-567" value="customer_id" style="shape=partialRectangle;connectable=0;fillColor=none;top=0;left=0;bottom=0;right=0;align=left;spacingLeft=2;overflow=hidden;fontSize=11;" vertex="1" parent="q0kX11MFpMA9dymLCP_G-565">
          <mxGeometry x="48" width="100" height="21" as="geometry">
            <mxRectangle width="100" height="21" as="alternateBounds" />
          </mxGeometry>
        </mxCell>
        <mxCell id="q0kX11MFpMA9dymLCP_G-568" style="shape=tableRow;horizontal=0;startSize=0;swimlaneHead=0;swimlaneBody=0;fillColor=none;collapsible=0;dropTarget=0;points=[[0,0.5],[1,0.5]];portConstraint=eastwest;top=0;left=0;right=0;bottom=0;" vertex="1" parent="q0kX11MFpMA9dymLCP_G-561">
          <mxGeometry y="67" width="148" height="21" as="geometry" />
        </mxCell>
        <mxCell id="q0kX11MFpMA9dymLCP_G-569" value="INT" style="shape=partialRectangle;connectable=0;fillColor=none;top=0;left=0;bottom=0;right=0;align=left;spacingLeft=2;overflow=hidden;fontSize=11;" vertex="1" parent="q0kX11MFpMA9dymLCP_G-568">
          <mxGeometry width="48" height="21" as="geometry">
            <mxRectangle width="48" height="21" as="alternateBounds" />
          </mxGeometry>
        </mxCell>
        <mxCell id="q0kX11MFpMA9dymLCP_G-570" value="show_id" style="shape=partialRectangle;connectable=0;fillColor=none;top=0;left=0;bottom=0;right=0;align=left;spacingLeft=2;overflow=hidden;fontSize=11;" vertex="1" parent="q0kX11MFpMA9dymLCP_G-568">
          <mxGeometry x="48" width="100" height="21" as="geometry">
            <mxRectangle width="100" height="21" as="alternateBounds" />
          </mxGeometry>
        </mxCell>
        <mxCell id="q0kX11MFpMA9dymLCP_G-571" style="shape=tableRow;horizontal=0;startSize=0;swimlaneHead=0;swimlaneBody=0;fillColor=none;collapsible=0;dropTarget=0;points=[[0,0.5],[1,0.5]];portConstraint=eastwest;top=0;left=0;right=0;bottom=0;" vertex="1" parent="q0kX11MFpMA9dymLCP_G-561">
          <mxGeometry y="88" width="148" height="21" as="geometry" />
        </mxCell>
        <mxCell id="q0kX11MFpMA9dymLCP_G-572" value="DATETIME" style="shape=partialRectangle;connectable=0;fillColor=none;top=0;left=0;bottom=0;right=0;align=left;spacingLeft=2;overflow=hidden;fontSize=11;" vertex="1" parent="q0kX11MFpMA9dymLCP_G-571">
          <mxGeometry width="48" height="21" as="geometry">
            <mxRectangle width="48" height="21" as="alternateBounds" />
          </mxGeometry>
        </mxCell>
        <mxCell id="q0kX11MFpMA9dymLCP_G-573" value="booking_date" style="shape=partialRectangle;connectable=0;fillColor=none;top=0;left=0;bottom=0;right=0;align=left;spacingLeft=2;overflow=hidden;fontSize=11;" vertex="1" parent="q0kX11MFpMA9dymLCP_G-571">
          <mxGeometry x="48" width="100" height="21" as="geometry">
            <mxRectangle width="100" height="21" as="alternateBounds" />
          </mxGeometry>
        </mxCell>
        <mxCell id="q0kX11MFpMA9dymLCP_G-574" style="shape=tableRow;horizontal=0;startSize=0;swimlaneHead=0;swimlaneBody=0;fillColor=none;collapsible=0;dropTarget=0;points=[[0,0.5],[1,0.5]];portConstraint=eastwest;top=0;left=0;right=0;bottom=0;" vertex="1" parent="q0kX11MFpMA9dymLCP_G-561">
          <mxGeometry y="109" width="148" height="21" as="geometry" />
        </mxCell>
        <mxCell id="q0kX11MFpMA9dymLCP_G-575" value="INT" style="shape=partialRectangle;connectable=0;fillColor=none;top=0;left=0;bottom=0;right=0;align=left;spacingLeft=2;overflow=hidden;fontSize=11;" vertex="1" parent="q0kX11MFpMA9dymLCP_G-574">
          <mxGeometry width="48" height="21" as="geometry">
            <mxRectangle width="48" height="21" as="alternateBounds" />
          </mxGeometry>
        </mxCell>
        <mxCell id="q0kX11MFpMA9dymLCP_G-576" value="seats_booked" style="shape=partialRectangle;connectable=0;fillColor=none;top=0;left=0;bottom=0;right=0;align=left;spacingLeft=2;overflow=hidden;fontSize=11;" vertex="1" parent="q0kX11MFpMA9dymLCP_G-574">
          <mxGeometry x="48" width="100" height="21" as="geometry">
            <mxRectangle width="100" height="21" as="alternateBounds" />
          </mxGeometry>
        </mxCell>
        <mxCell id="q0kX11MFpMA9dymLCP_G-577" style="shape=tableRow;horizontal=0;startSize=0;swimlaneHead=0;swimlaneBody=0;fillColor=none;collapsible=0;dropTarget=0;points=[[0,0.5],[1,0.5]];portConstraint=eastwest;top=0;left=0;right=0;bottom=0;" vertex="1" parent="q0kX11MFpMA9dymLCP_G-561">
          <mxGeometry y="130" width="148" height="21" as="geometry" />
        </mxCell>
        <mxCell id="q0kX11MFpMA9dymLCP_G-578" value="DECIMAL" style="shape=partialRectangle;connectable=0;fillColor=none;top=0;left=0;bottom=0;right=0;align=left;spacingLeft=2;overflow=hidden;fontSize=11;" vertex="1" parent="q0kX11MFpMA9dymLCP_G-577">
          <mxGeometry width="48" height="21" as="geometry">
            <mxRectangle width="48" height="21" as="alternateBounds" />
          </mxGeometry>
        </mxCell>
        <mxCell id="q0kX11MFpMA9dymLCP_G-579" value="total_amount" style="shape=partialRectangle;connectable=0;fillColor=none;top=0;left=0;bottom=0;right=0;align=left;spacingLeft=2;overflow=hidden;fontSize=11;" vertex="1" parent="q0kX11MFpMA9dymLCP_G-577">
          <mxGeometry x="48" width="100" height="21" as="geometry">
            <mxRectangle width="100" height="21" as="alternateBounds" />
          </mxGeometry>
        </mxCell>
        <mxCell id="q0kX11MFpMA9dymLCP_G-580" value="Payment" style="shape=table;startSize=25;container=1;collapsible=0;childLayout=tableLayout;fixedRows=1;rowLines=1;fontStyle=1;align=center;resizeLast=1;" vertex="1" parent="1">
          <mxGeometry x="386" y="1220" width="158" height="131" as="geometry" />
        </mxCell>
        <mxCell id="q0kX11MFpMA9dymLCP_G-581" style="shape=tableRow;horizontal=0;startSize=0;swimlaneHead=0;swimlaneBody=0;fillColor=none;collapsible=0;dropTarget=0;points=[[0,0.5],[1,0.5]];portConstraint=eastwest;top=0;left=0;right=0;bottom=0;" vertex="1" parent="q0kX11MFpMA9dymLCP_G-580">
          <mxGeometry y="25" width="158" height="21" as="geometry" />
        </mxCell>
        <mxCell id="q0kX11MFpMA9dymLCP_G-582" value="INT" style="shape=partialRectangle;connectable=0;fillColor=none;top=0;left=0;bottom=0;right=0;align=left;spacingLeft=2;overflow=hidden;fontSize=11;" vertex="1" parent="q0kX11MFpMA9dymLCP_G-581">
          <mxGeometry width="48" height="21" as="geometry">
            <mxRectangle width="48" height="21" as="alternateBounds" />
          </mxGeometry>
        </mxCell>
        <mxCell id="q0kX11MFpMA9dymLCP_G-583" value="payment_id" style="shape=partialRectangle;connectable=0;fillColor=none;top=0;left=0;bottom=0;right=0;align=left;spacingLeft=2;overflow=hidden;fontSize=11;" vertex="1" parent="q0kX11MFpMA9dymLCP_G-581">
          <mxGeometry x="48" width="110" height="21" as="geometry">
            <mxRectangle width="110" height="21" as="alternateBounds" />
          </mxGeometry>
        </mxCell>
        <mxCell id="q0kX11MFpMA9dymLCP_G-584" style="shape=tableRow;horizontal=0;startSize=0;swimlaneHead=0;swimlaneBody=0;fillColor=none;collapsible=0;dropTarget=0;points=[[0,0.5],[1,0.5]];portConstraint=eastwest;top=0;left=0;right=0;bottom=0;" vertex="1" parent="q0kX11MFpMA9dymLCP_G-580">
          <mxGeometry y="46" width="158" height="21" as="geometry" />
        </mxCell>
        <mxCell id="q0kX11MFpMA9dymLCP_G-585" value="INT" style="shape=partialRectangle;connectable=0;fillColor=none;top=0;left=0;bottom=0;right=0;align=left;spacingLeft=2;overflow=hidden;fontSize=11;" vertex="1" parent="q0kX11MFpMA9dymLCP_G-584">
          <mxGeometry width="48" height="21" as="geometry">
            <mxRectangle width="48" height="21" as="alternateBounds" />
          </mxGeometry>
        </mxCell>
        <mxCell id="q0kX11MFpMA9dymLCP_G-586" value="booking_id" style="shape=partialRectangle;connectable=0;fillColor=none;top=0;left=0;bottom=0;right=0;align=left;spacingLeft=2;overflow=hidden;fontSize=11;" vertex="1" parent="q0kX11MFpMA9dymLCP_G-584">
          <mxGeometry x="48" width="110" height="21" as="geometry">
            <mxRectangle width="110" height="21" as="alternateBounds" />
          </mxGeometry>
        </mxCell>
        <mxCell id="q0kX11MFpMA9dymLCP_G-587" style="shape=tableRow;horizontal=0;startSize=0;swimlaneHead=0;swimlaneBody=0;fillColor=none;collapsible=0;dropTarget=0;points=[[0,0.5],[1,0.5]];portConstraint=eastwest;top=0;left=0;right=0;bottom=0;" vertex="1" parent="q0kX11MFpMA9dymLCP_G-580">
          <mxGeometry y="67" width="158" height="21" as="geometry" />
        </mxCell>
        <mxCell id="q0kX11MFpMA9dymLCP_G-588" value="DATETIME" style="shape=partialRectangle;connectable=0;fillColor=none;top=0;left=0;bottom=0;right=0;align=left;spacingLeft=2;overflow=hidden;fontSize=11;" vertex="1" parent="q0kX11MFpMA9dymLCP_G-587">
          <mxGeometry width="48" height="21" as="geometry">
            <mxRectangle width="48" height="21" as="alternateBounds" />
          </mxGeometry>
        </mxCell>
        <mxCell id="q0kX11MFpMA9dymLCP_G-589" value="payment_date" style="shape=partialRectangle;connectable=0;fillColor=none;top=0;left=0;bottom=0;right=0;align=left;spacingLeft=2;overflow=hidden;fontSize=11;" vertex="1" parent="q0kX11MFpMA9dymLCP_G-587">
          <mxGeometry x="48" width="110" height="21" as="geometry">
            <mxRectangle width="110" height="21" as="alternateBounds" />
          </mxGeometry>
        </mxCell>
        <mxCell id="q0kX11MFpMA9dymLCP_G-590" style="shape=tableRow;horizontal=0;startSize=0;swimlaneHead=0;swimlaneBody=0;fillColor=none;collapsible=0;dropTarget=0;points=[[0,0.5],[1,0.5]];portConstraint=eastwest;top=0;left=0;right=0;bottom=0;" vertex="1" parent="q0kX11MFpMA9dymLCP_G-580">
          <mxGeometry y="88" width="158" height="21" as="geometry" />
        </mxCell>
        <mxCell id="q0kX11MFpMA9dymLCP_G-591" value="VARCHAR" style="shape=partialRectangle;connectable=0;fillColor=none;top=0;left=0;bottom=0;right=0;align=left;spacingLeft=2;overflow=hidden;fontSize=11;" vertex="1" parent="q0kX11MFpMA9dymLCP_G-590">
          <mxGeometry width="48" height="21" as="geometry">
            <mxRectangle width="48" height="21" as="alternateBounds" />
          </mxGeometry>
        </mxCell>
        <mxCell id="q0kX11MFpMA9dymLCP_G-592" value="payment_status" style="shape=partialRectangle;connectable=0;fillColor=none;top=0;left=0;bottom=0;right=0;align=left;spacingLeft=2;overflow=hidden;fontSize=11;" vertex="1" parent="q0kX11MFpMA9dymLCP_G-590">
          <mxGeometry x="48" width="110" height="21" as="geometry">
            <mxRectangle width="110" height="21" as="alternateBounds" />
          </mxGeometry>
        </mxCell>
        <mxCell id="q0kX11MFpMA9dymLCP_G-593" style="shape=tableRow;horizontal=0;startSize=0;swimlaneHead=0;swimlaneBody=0;fillColor=none;collapsible=0;dropTarget=0;points=[[0,0.5],[1,0.5]];portConstraint=eastwest;top=0;left=0;right=0;bottom=0;" vertex="1" parent="q0kX11MFpMA9dymLCP_G-580">
          <mxGeometry y="109" width="158" height="21" as="geometry" />
        </mxCell>
        <mxCell id="q0kX11MFpMA9dymLCP_G-594" value="DECIMAL" style="shape=partialRectangle;connectable=0;fillColor=none;top=0;left=0;bottom=0;right=0;align=left;spacingLeft=2;overflow=hidden;fontSize=11;" vertex="1" parent="q0kX11MFpMA9dymLCP_G-593">
          <mxGeometry width="48" height="21" as="geometry">
            <mxRectangle width="48" height="21" as="alternateBounds" />
          </mxGeometry>
        </mxCell>
        <mxCell id="q0kX11MFpMA9dymLCP_G-595" value="amount_paid" style="shape=partialRectangle;connectable=0;fillColor=none;top=0;left=0;bottom=0;right=0;align=left;spacingLeft=2;overflow=hidden;fontSize=11;" vertex="1" parent="q0kX11MFpMA9dymLCP_G-593">
          <mxGeometry x="48" width="110" height="21" as="geometry">
            <mxRectangle width="110" height="21" as="alternateBounds" />
          </mxGeometry>
        </mxCell>
        <mxCell id="q0kX11MFpMA9dymLCP_G-596" value="Located in" style="curved=1;startArrow=ERmandOne;startSize=10;;endArrow=ERzeroToOne;endSize=10;;exitX=0.5;exitY=1;entryX=0.5;entryY=0;rounded=0;" edge="1" parent="1" source="q0kX11MFpMA9dymLCP_G-476" target="q0kX11MFpMA9dymLCP_G-483">
          <mxGeometry relative="1" as="geometry">
            <Array as="points" />
          </mxGeometry>
        </mxCell>
        <mxCell id="q0kX11MFpMA9dymLCP_G-597" value="Hosts" style="curved=1;startArrow=ERmandOne;startSize=10;;endArrow=ERzeroToOne;endSize=10;;exitX=0.5;exitY=0.99;entryX=0;entryY=0.26;rounded=0;" edge="1" parent="1" source="q0kX11MFpMA9dymLCP_G-483" target="q0kX11MFpMA9dymLCP_G-529">
          <mxGeometry relative="1" as="geometry">
            <Array as="points">
              <mxPoint x="100" y="687" />
            </Array>
          </mxGeometry>
        </mxCell>
        <mxCell id="q0kX11MFpMA9dymLCP_G-598" value="Is shown in" style="curved=1;startArrow=ERmandOne;startSize=10;;endArrow=ERzeroToOne;endSize=10;;exitX=0.5;exitY=0.99;entryX=1;entryY=0.03;rounded=0;" edge="1" parent="1" source="q0kX11MFpMA9dymLCP_G-513" target="q0kX11MFpMA9dymLCP_G-529">
          <mxGeometry relative="1" as="geometry">
            <Array as="points">
              <mxPoint x="469" y="687" />
            </Array>
          </mxGeometry>
        </mxCell>
        <mxCell id="q0kX11MFpMA9dymLCP_G-599" value="Belongs to" style="curved=1;startArrow=ERmandOne;startSize=10;;endArrow=ERzeroToOne;endSize=10;;exitX=0.5;exitY=1;entryX=0.01;entryY=0;rounded=0;" edge="1" parent="1" source="q0kX11MFpMA9dymLCP_G-499" target="q0kX11MFpMA9dymLCP_G-513">
          <mxGeometry relative="1" as="geometry">
            <Array as="points">
              <mxPoint x="345" y="457" />
            </Array>
          </mxGeometry>
        </mxCell>
        <mxCell id="q0kX11MFpMA9dymLCP_G-600" value="Is in" style="curved=1;startArrow=ERmandOne;startSize=10;;endArrow=ERzeroToOne;endSize=10;;exitX=0.5;exitY=1;entryX=0.99;entryY=0;rounded=0;" edge="1" parent="1" source="q0kX11MFpMA9dymLCP_G-506" target="q0kX11MFpMA9dymLCP_G-513">
          <mxGeometry relative="1" as="geometry">
            <Array as="points">
              <mxPoint x="593" y="457" />
            </Array>
          </mxGeometry>
        </mxCell>
        <mxCell id="q0kX11MFpMA9dymLCP_G-601" value="Is booked for" style="curved=1;startArrow=ERmandOne;startSize=10;;endArrow=ERzeroToOne;endSize=10;;exitX=0.5;exitY=1;entryX=0;entryY=0;rounded=0;" edge="1" parent="1" source="q0kX11MFpMA9dymLCP_G-529" target="q0kX11MFpMA9dymLCP_G-561">
          <mxGeometry relative="1" as="geometry">
            <Array as="points">
              <mxPoint x="343" y="918" />
            </Array>
          </mxGeometry>
        </mxCell>
        <mxCell id="q0kX11MFpMA9dymLCP_G-602" value="Makes" style="curved=1;startArrow=ERmandOne;startSize=10;;endArrow=ERzeroToOne;endSize=10;;exitX=0.5;exitY=1;entryX=1;entryY=0;rounded=0;" edge="1" parent="1" source="q0kX11MFpMA9dymLCP_G-545" target="q0kX11MFpMA9dymLCP_G-561">
          <mxGeometry relative="1" as="geometry">
            <Array as="points">
              <mxPoint x="587" y="918" />
            </Array>
          </mxGeometry>
        </mxCell>
        <mxCell id="q0kX11MFpMA9dymLCP_G-603" value="Has" style="curved=1;startArrow=ERmandOne;startSize=10;;endArrow=ERmandOne;endSize=10;;exitX=0.5;exitY=1;entryX=0.5;entryY=0;rounded=0;" edge="1" parent="1" source="q0kX11MFpMA9dymLCP_G-561" target="q0kX11MFpMA9dymLCP_G-580">
          <mxGeometry relative="1" as="geometry">
            <Array as="points" />
          </mxGeometry>
        </mxCell>
      </root>
    </mxGraphModel>
  </diagram>
</mxfile>
